<svg width="25" height="25" viewBox="0 0 25 25" fill="none" xmlns="http://www.w3.org/2000/svg">
<path d="M10.0625 -0.00195312H1C0.447715 -0.00195312 0 0.445762 0 0.998047V10.0606C0 10.6129 0.447716 11.0606 1 11.0606H10.0625C10.6148 11.0606 11.0625 10.6129 11.0625 10.0606V0.998047C11.0625 0.445762 10.6148 -0.00195312 10.0625 -0.00195312Z" fill="#3F3F3F"/>
<path d="M23.583 -0.00195312H14.5205C13.9682 -0.00195312 13.5205 0.445762 13.5205 0.998047V10.0606C13.5205 10.6129 13.9682 11.0606 14.5205 11.0606H23.583C24.1353 11.0606 24.583 10.6129 24.583 10.0606V0.998047C24.583 0.445762 24.1353 -0.00195312 23.583 -0.00195312Z" fill="#3F3F3F"/>
<path d="M10.0625 13.5186H1C0.447715 13.5186 0 13.9663 0 14.5186V23.5811C0 24.1334 0.447716 24.5811 1 24.5811H10.0625C10.6148 24.5811 11.0625 24.1334 11.0625 23.5811V14.5186C11.0625 13.9663 10.6148 13.5186 10.0625 13.5186Z" fill="#3F3F3F"/>
<path d="M23.583 13.5186H14.5205C13.9682 13.5186 13.5205 13.9663 13.5205 14.5186V23.5811C13.5205 24.1334 13.9682 24.5811 14.5205 24.5811H23.583C24.1353 24.5811 24.583 24.1334 24.583 23.5811V14.5186C24.583 13.9663 24.1353 13.5186 23.583 13.5186Z" fill="#3F3F3F"/>
</svg>
