<svg width="91" height="94" viewBox="0 0 91 94" fill="none" xmlns="http://www.w3.org/2000/svg">
<path d="M64.7808 0.93853C57.8291 0.876397 51.1409 3.62687 46.1541 8.58327L46.0895 8.64802L43.9716 10.8124C42.2793 12.5419 42.2793 15.3459 43.9716 17.0754L47.036 20.2069C48.7287 21.9363 51.4724 21.9363 53.1647 20.2069L55.2479 18.0783C57.7858 15.5713 61.1669 14.1925 64.6668 14.2238C68.1806 14.2552 71.5509 15.7053 74.0493 18.2762C76.5494 20.8488 77.9752 24.3383 78.006 27.9959C78.0368 31.6355 76.6834 35.134 74.2495 37.7473L60.7626 51.6149C59.3962 53.0219 57.755 54.1064 55.9513 54.7991C54.1476 55.4912 52.2217 55.776 50.304 55.6347C48.3864 55.493 46.5185 54.9288 44.8271 53.978C44.4015 53.7388 43.989 53.4762 43.592 53.1919C41.6323 51.788 38.9423 51.2982 37.0208 52.7566L33.542 55.3974C31.6206 56.8557 31.1985 59.6621 32.919 61.3627C34.6023 63.0265 36.4981 64.4592 38.5601 65.6186C41.8914 67.4914 45.5781 68.6065 49.3688 68.886C53.16 69.1654 56.9641 68.6021 60.5229 67.2363C64.0818 65.8701 67.31 63.7338 69.9895 60.9752L83.5159 47.0667L83.5965 46.9821C88.4108 41.8529 91.067 34.9929 91.0067 27.8812C90.9469 20.7695 88.1751 13.9574 83.2745 8.91462C78.3726 3.87035 71.7321 1.00071 64.7808 0.93853Z" fill="#92BDFF"/>
<path d="M41.6392 25.9886C37.8481 25.7092 34.0437 26.2722 30.4849 27.6384C26.9274 29.004 23.6977 31.1421 21.0183 33.8995L7.49182 47.8081L7.41113 47.8927C2.59711 53.0215 -0.0590683 59.8818 0.000996941 66.9937C0.0610622 74.1052 2.83273 80.9172 7.73312 85.9601C12.635 91.0043 19.2755 93.874 26.227 93.936C33.1785 93.9984 39.8671 91.2478 44.8539 86.2914L44.9181 86.2267L47.0364 84.062C48.7287 82.3326 48.7287 79.5289 47.0364 77.7991L43.9716 74.6676C42.2793 72.9382 39.5356 72.9382 37.8429 74.6676L35.7599 76.7964C33.2222 79.3035 29.8409 80.6821 26.3407 80.6511C22.8271 80.6196 19.4568 79.1693 16.9584 76.5985C14.4585 74.0259 13.0326 70.5366 13.0017 66.879C12.9709 63.2391 14.3243 59.7405 16.7582 57.1272L30.2452 43.2595C31.6116 41.853 33.253 40.768 35.0568 40.0758C36.8604 39.3832 38.7859 39.0988 40.704 39.2401C42.6216 39.3814 44.4895 39.9456 46.1805 40.8964C46.6065 41.136 47.0186 41.3986 47.4156 41.6829C49.3757 43.0868 52.0657 43.5762 53.9868 42.1178L57.4659 39.477C59.3875 38.0186 59.8096 35.2122 58.0891 33.5118C56.4055 31.8481 54.5099 30.4154 52.4475 29.256C49.1161 27.3831 45.4299 26.268 41.6392 25.9886Z" fill="#92BDFF"/>
</svg>
