<svg width="109" height="93" viewBox="0 0 109 93" fill="none" xmlns="http://www.w3.org/2000/svg">
<g clip-path="url(#clip0_172_1689)">
<path d="M96.5208 -0.461908H27.6896C27.1256 -0.462381 26.5669 -0.351746 26.0456 -0.136318C25.5243 0.0791094 25.0505 0.395111 24.6513 0.793643C24.2521 1.19217 23.9353 1.66543 23.719 2.1864C23.5027 2.70736 23.3911 3.26582 23.3906 3.82991V22.9611L63.2782 34.6726L100.823 22.9611V3.82991C100.823 3.26552 100.711 2.70676 100.495 2.18556C100.278 1.66436 99.9611 1.19095 99.5615 0.792367C99.162 0.393788 98.6877 0.077862 98.166 -0.137354C97.6443 -0.352569 97.0852 -0.462855 96.5208 -0.461908Z" fill="#41A5EE"/>
<path d="M100.823 22.9609H23.3906V46.3839L63.2782 53.4108L100.823 46.3839V22.9609Z" fill="#2B7CD3"/>
<path d="M23.3906 46.3838V69.8068L60.9323 74.4914L100.823 69.8068V46.3838H23.3906Z" fill="#185ABD"/>
<path d="M27.6896 93.2296H96.5172C97.0819 93.2311 97.6413 93.1211 98.1635 92.9061C98.6857 92.6911 99.1603 92.3753 99.5603 91.9766C99.9602 91.578 100.278 91.1044 100.494 90.583C100.711 90.0616 100.823 89.5025 100.823 88.9378V69.8066H23.3906V88.9378C23.3911 89.5019 23.5027 90.0604 23.719 90.5813C23.9353 91.1023 24.2521 91.5756 24.6513 91.9741C25.0505 92.3726 25.5243 92.6886 26.0456 92.9041C26.5669 93.1195 27.1256 93.2301 27.6896 93.2296Z" fill="#103F91"/>
<path opacity="0.1" d="M51.9379 18.2764H23.3906V76.8339H51.9379C53.0754 76.8282 54.1649 76.3746 54.9702 75.5712C55.7756 74.7679 56.232 73.6796 56.2405 72.5421V22.5682C56.232 21.4307 55.7756 20.3424 54.9702 19.539C54.1649 18.7357 53.0754 18.282 51.9379 18.2764Z" fill="black"/>
<path opacity="0.2" d="M49.592 20.6182H23.3906V79.1757H49.592C50.7295 79.17 51.8189 78.7164 52.6243 77.913C53.4297 77.1097 53.8861 76.0214 53.8946 74.8839V24.91C53.8861 23.7725 53.4297 22.6842 52.6243 21.8808C51.8189 21.0775 50.7295 20.6238 49.592 20.6182Z" fill="black"/>
<path opacity="0.2" d="M49.592 20.6182H23.3906V74.4911H49.592C50.7295 74.4854 51.8189 74.0318 52.6243 73.2284C53.4297 72.4251 53.8861 71.3367 53.8946 70.1992V24.91C53.8861 23.7725 53.4297 22.6842 52.6243 21.8808C51.8189 21.0775 50.7295 20.6238 49.592 20.6182Z" fill="black"/>
<path opacity="0.2" d="M47.2461 20.6182H23.3906V74.4911H47.2461C48.3836 74.4854 49.473 74.0318 50.2784 73.2284C51.0838 72.4251 51.5402 71.3367 51.5487 70.1992V24.91C51.5402 23.7725 51.0838 22.6842 50.2784 21.8808C49.473 21.0775 48.3836 20.6238 47.2461 20.6182Z" fill="black"/>
<path d="M4.22645 20.6182H47.2455C48.385 20.6172 49.4784 21.0687 50.2851 21.8735C51.0919 22.6783 51.5462 23.7704 51.5481 24.91V67.857C51.5462 68.9965 51.0919 70.0887 50.2851 70.8934C49.4784 71.6982 48.385 72.1497 47.2455 72.1488H4.22645C3.66207 72.1497 3.10303 72.0394 2.58129 71.8242C2.05955 71.609 1.58533 71.2931 1.18575 70.8945C0.786166 70.4959 0.469048 70.0225 0.25252 69.5013C0.0359928 68.9801 -0.0756992 68.4213 -0.0761719 67.857V24.91C-0.0756992 24.3456 0.0359928 23.7868 0.25252 23.2656C0.469048 22.7444 0.786166 22.271 1.18575 21.8724C1.58533 21.4739 2.05955 21.1579 2.58129 20.9427C3.10303 20.7275 3.66207 20.6172 4.22645 20.6182Z" fill="url(#paint0_linear_172_1689)"/>
<path d="M17.581 53.5479C17.6639 54.211 17.7216 54.7875 17.7468 55.2812H17.8477C17.8837 54.8128 17.963 54.247 18.0819 53.5876C18.2008 52.9281 18.3053 52.3696 18.4026 51.9119L22.9251 32.4276H28.7772L33.4618 51.62C33.7347 52.8072 33.9297 54.0109 34.0456 55.2236H34.1249C34.2109 54.0431 34.3734 52.8695 34.6113 51.7101L38.3554 32.4023H43.6778L37.105 60.3226H30.8817L26.4241 41.8508C26.2944 41.3175 26.1478 40.6232 25.9845 39.768C25.8211 38.9127 25.7202 38.2881 25.6818 37.8941H25.6061C25.5557 38.3482 25.4548 39.022 25.3034 39.9157C25.1521 40.813 25.0331 41.4725 24.943 41.9049L20.7521 60.3334H14.4243L7.81543 32.4276H13.2207L17.2963 51.9515C17.418 52.4785 17.513 53.0113 17.581 53.5479Z" fill="white"/>
</g>
<defs>
<linearGradient id="paint0_linear_172_1689" x1="8.91105" y1="17.2453" x2="42.5609" y2="75.5217" gradientUnits="userSpaceOnUse">
<stop stop-color="#2368C4"/>
<stop offset="0.5" stop-color="#1A5DBE"/>
<stop offset="1" stop-color="#1146AC"/>
</linearGradient>
<clipPath id="clip0_172_1689">
<rect width="109" height="93" fill="white"/>
</clipPath>
</defs>
</svg>
