<svg width="24" height="25" viewBox="0 0 24 25" fill="none" xmlns="http://www.w3.org/2000/svg">
<path d="M24 16.25V22.5C23.9994 23.1628 23.7885 23.7983 23.4135 24.2669C23.0386 24.7356 22.5302 24.9992 22 25H2C1.46975 24.9992 0.961398 24.7356 0.586456 24.2669C0.211515 23.7983 0.000606423 23.1628 0 22.5V16.25C0.000606423 15.5872 0.211515 14.9517 0.586456 14.4831C0.961398 14.0144 1.46975 13.7508 2 13.75H22C22.5302 13.7508 23.0386 14.0144 23.4135 14.4831C23.7885 14.9517 23.9994 15.5872 24 16.25ZM22 0H2C1.46975 0.000758028 0.961398 0.264394 0.586456 0.73307C0.211515 1.20175 0.000606423 1.83719 0 2.5V8.75C0.000606423 9.41281 0.211515 10.0483 0.586456 10.5169C0.961398 10.9856 1.46975 11.2492 2 11.25H22C22.5302 11.2492 23.0386 10.9856 23.4135 10.5169C23.7885 10.0483 23.9994 9.41281 24 8.75V2.5C23.9994 1.83719 23.7885 1.20175 23.4135 0.73307C23.0386 0.264394 22.5302 0.000758028 22 0Z" fill="#3F3F3F"/>
</svg>
