<svg width="107" height="93" viewBox="0 0 107 93" fill="none" xmlns="http://www.w3.org/2000/svg">
<g clip-path="url(#clip0_172_1730)">
<path d="M72.4165 0.0253906L90.9825 19.3789V92.9754H21.627V93.2157H91.2194V19.6224L72.4165 0.0253906Z" fill="#909090"/>
<path d="M72.1868 -0.214844H21.3906V92.9755H90.983V19.3822L72.1868 -0.214844Z" fill="#F4F4F4"/>
<path d="M20.8798 4.79004H-0.442383V27.5704H66.6274V4.79004H20.8798Z" fill="#7A7B7C"/>
<path d="M66.9852 27.1838H-0.0078125V4.38672H66.9852V27.1838Z" fill="#DD2025"/>
<path d="M22.205 8.24023H22.1049H21.4141H17.8438V24.2569H21.274V18.8546L22.0314 18.898C22.7674 18.8853 23.4965 18.7535 24.1904 18.5076C24.7987 18.2984 25.3583 17.968 25.8354 17.5366C26.3209 17.1255 26.7037 16.6068 26.9532 16.0217C27.2879 15.049 27.4074 14.0152 27.3036 12.9918C27.2828 12.2608 27.1546 11.5367 26.9232 10.8429C26.7126 10.3421 26.4 9.89062 26.0053 9.51721C25.6106 9.14379 25.1425 8.85664 24.6308 8.67402C24.1884 8.51385 23.7313 8.39761 23.2661 8.32699C22.9138 8.27264 22.5581 8.24364 22.2016 8.24023M21.571 15.8949H21.274V10.9564H21.918C22.2022 10.9359 22.4874 10.9795 22.7525 11.0841C23.0176 11.1886 23.2558 11.3514 23.4496 11.5604C23.8511 12.0976 24.0655 12.7516 24.0602 13.4223C24.0602 14.2431 24.0602 14.9873 23.3194 15.5111C22.7858 15.8047 22.1783 15.9401 21.571 15.8949Z" fill="#464648"/>
<path d="M33.8197 8.1966C33.4493 8.1966 33.0889 8.22329 32.8353 8.2333L32.0412 8.25333H29.4385V24.27H32.5017C33.6723 24.3021 34.8378 24.1037 35.9319 23.686C36.8125 23.3368 37.5923 22.7737 38.2009 22.0477C38.7928 21.3151 39.2175 20.4622 39.4456 19.5484C39.7077 18.5136 39.8356 17.4493 39.826 16.3818C39.8907 15.121 39.7931 13.8571 39.5356 12.6212C39.2913 11.7115 38.8338 10.873 38.2009 10.1753C37.7044 9.61195 37.0966 9.1575 36.4157 8.8406C35.8311 8.57004 35.216 8.37063 34.5838 8.24665C34.3324 8.20512 34.0778 8.18614 33.823 8.18993M33.2157 21.3269H32.8821V11.103H32.9254C33.6133 11.0238 34.3094 11.1479 34.9275 11.46C35.3802 11.8215 35.7491 12.2768 36.0086 12.7947C36.2888 13.3397 36.4503 13.9379 36.4825 14.5499C36.5125 15.284 36.4825 15.8846 36.4825 16.3818C36.4961 16.9545 36.4592 17.5273 36.3724 18.0936C36.2695 18.6749 36.0794 19.2374 35.8084 19.762C35.5018 20.2497 35.0874 20.6606 34.5972 20.9632C34.1855 21.2295 33.698 21.3537 33.2091 21.3169" fill="#464648"/>
<path d="M50.1602 8.25391H42.0518V24.2706H45.482V17.9173H49.8198V14.9409H45.482V11.2303H50.1535V8.25391" fill="#464648"/>
<path d="M64.6793 60.6984C64.6793 60.6984 75.3171 58.7697 75.3171 62.4035C75.3171 66.0373 68.7269 64.5591 64.6793 60.6984ZM56.8145 60.9753C55.1244 61.3488 53.4773 61.8956 51.8994 62.607L53.2341 59.6039C54.5688 56.6008 55.9536 52.5065 55.9536 52.5065C57.5463 55.1871 59.3994 57.7041 61.486 60.021C59.9124 60.2556 58.3529 60.5765 56.8145 60.982V60.9753ZM52.6034 39.2861C52.6034 36.1195 53.6278 35.2552 54.4253 35.2552C55.2228 35.2552 56.1204 35.639 56.1505 38.3885C55.8906 41.1532 55.3117 43.8786 54.4253 46.5103C53.2111 44.3008 52.5828 41.8172 52.6001 39.2961L52.6034 39.2861ZM37.0906 74.3759C33.8272 72.4239 43.9344 66.4143 45.7663 66.2208C45.7563 66.2241 40.5075 76.4181 37.0906 74.3759ZM78.4236 62.8339C78.3903 62.5003 78.09 58.8064 71.5164 58.9632C68.7765 58.9191 66.0379 59.1122 63.3313 59.5405C60.7094 56.8991 58.4516 53.9197 56.6176 50.6813C57.7731 47.3426 58.4723 43.8631 58.6964 40.3372C58.5997 36.333 57.642 34.0373 54.5721 34.0707C51.5023 34.104 51.0552 36.7902 51.4589 40.7877C51.8544 43.474 52.6004 46.0968 53.6779 48.5891C53.6779 48.5891 52.2597 53.0037 50.3845 57.3949C48.5092 61.7862 47.2278 64.0886 47.2278 64.0886C43.9669 65.1501 40.897 66.7273 38.135 68.7601C35.3855 71.3194 34.2677 73.2848 35.7159 75.2502C36.9638 76.9453 41.3317 77.329 45.2358 72.2137C47.3101 69.5717 49.2052 66.7937 50.9083 63.8984C50.9083 63.8984 56.8612 62.2667 58.7131 61.8195C60.565 61.3724 62.804 61.0187 62.804 61.0187C62.804 61.0187 68.2397 66.4877 73.4818 66.2942C78.7239 66.1007 78.4703 63.1609 78.437 62.8406" fill="#DD2025"/>
<path d="M71.9297 0.0410156V19.6381H90.7259L71.9297 0.0410156Z" fill="#909090"/>
<path d="M72.1865 -0.214844V19.3822H90.9827L72.1865 -0.214844Z" fill="#F4F4F4"/>
<path d="M21.9471 7.9834H21.847H21.1563H17.5859V24.0001H21.0295V18.6011L21.7903 18.6445C22.5263 18.6318 23.2554 18.5 23.9492 18.2541C24.5575 18.0448 25.1171 17.7145 25.5943 17.2831C26.0761 16.8709 26.4554 16.3523 26.7021 15.7682C27.0368 14.7955 27.1563 13.7617 27.0525 12.7383C27.0316 12.0073 26.9034 11.2832 26.6721 10.5894C26.4614 10.0886 26.1488 9.63712 25.7541 9.26371C25.3595 8.89029 24.8914 8.60314 24.3797 8.42052C23.9352 8.25879 23.4758 8.14143 23.0082 8.07016C22.656 8.0158 22.3002 7.98681 21.9438 7.9834M21.3131 15.638H21.0162V10.6996H21.6635C21.9477 10.6791 22.2329 10.7227 22.498 10.8272C22.7631 10.9318 23.0014 11.0945 23.1951 11.3035C23.5966 11.8408 23.8111 12.4948 23.8057 13.1655C23.8057 13.9863 23.8057 14.7304 23.065 15.2543C22.5313 15.5478 21.9239 15.68 21.3165 15.6347" fill="white"/>
<path d="M33.5626 7.93976C33.1922 7.93976 32.8319 7.96646 32.5783 7.97647L31.7941 7.99649H29.1914V24.0132H32.2546C33.4252 24.0452 34.5907 23.8468 35.6848 23.4292C36.5655 23.0799 37.3453 22.5169 37.9539 21.7908C38.5457 21.0583 38.9704 20.2053 39.1985 19.2916C39.4606 18.2567 39.5885 17.1924 39.5789 16.1249C39.6436 14.8642 39.546 13.6003 39.2886 12.3644C39.0443 11.4546 38.5867 10.6162 37.9539 9.91849C37.4573 9.35511 36.8495 8.90066 36.1687 8.58377C35.584 8.31321 34.969 8.1138 34.3368 7.98982C34.0854 7.94829 33.8307 7.9293 33.576 7.93309M32.9687 21.0701H32.635V10.8461H32.6784C33.3663 10.767 34.0623 10.8911 34.6805 11.2032C35.1331 11.5646 35.502 12.02 35.7616 12.5379C36.0417 13.0829 36.2032 13.6811 36.2354 14.293C36.2654 15.0271 36.2354 15.6278 36.2354 16.1249C36.249 16.6977 36.2121 17.2705 36.1253 17.8367C36.0224 18.4181 35.8323 18.9806 35.5614 19.5051C35.2547 19.9928 34.8403 20.4038 34.3501 20.7064C33.9384 20.9727 33.4509 21.0969 32.962 21.0601" fill="white"/>
<path d="M49.9034 7.99609H41.7949V24.0128H45.2252V17.6595H49.563V14.6831H45.2252V10.9725H49.8967V7.99609" fill="white"/>
</g>
<defs>
<clipPath id="clip0_172_1730">
<rect width="107" height="93" fill="white"/>
</clipPath>
</defs>
</svg>
