<svg width="115" height="93" viewBox="0 0 115 93" fill="none" xmlns="http://www.w3.org/2000/svg">
<g clip-path="url(#clip0_172_1613)">
<path d="M68.0297 51.1719L61.0111 -0.21875H60.4864C48.2334 -0.197931 36.487 4.67288 27.8147 13.329C19.1424 21.9851 14.2497 33.7224 14.2061 45.9753V46.5L68.0297 51.1719Z" fill="#ED6C47"/>
<path d="M61.5364 -0.21875H61.0117V46.5L84.4106 55.8438L107.813 46.5V45.9753C107.769 33.723 102.877 21.9862 94.2058 13.3302C85.5343 4.67424 73.7888 -0.196983 61.5364 -0.21875Z" fill="#FF8F6B"/>
<path d="M107.812 46.5V47.0139C107.767 59.2685 102.873 71.0069 94.1999 79.6645C85.5268 88.3221 73.7796 93.1951 61.525 93.2188H60.4936C48.2395 93.1932 36.4934 88.3196 27.8207 79.6624C19.1481 71.0052 14.2535 59.2679 14.2061 47.0139V46.5H107.812Z" fill="#D35230"/>
<path opacity="0.1" d="M63.3506 22.7417V72.5906C63.3441 73.4388 63.0877 74.2661 62.6134 74.9693C62.1391 75.6724 61.468 76.2201 60.6841 76.5438C60.1722 76.7594 59.6223 76.8706 59.0669 76.8708H25.2533C24.5992 76.1233 23.9667 75.3291 23.3809 74.5348C17.4199 66.5998 14.1999 56.9421 14.2061 47.0175V45.9897C14.1948 37.0374 16.8155 28.2794 21.7422 20.8047C22.2561 20.0105 22.7952 19.2163 23.3809 18.4688H59.0669C60.1988 18.4762 61.2824 18.9285 62.0839 19.7279C62.8853 20.5273 63.3403 21.6098 63.3506 22.7417Z" fill="black"/>
<path opacity="0.2" d="M61.0111 25.0812V74.9302C61.0109 75.4833 60.8997 76.0308 60.6841 76.5402C60.3598 77.3234 59.8119 77.9938 59.1088 78.4674C58.4057 78.941 57.5786 79.1969 56.7309 79.2031H27.3844C26.6441 78.4508 25.9337 77.6722 25.2533 76.8672C24.5992 76.1197 23.9667 75.3255 23.3809 74.5312C17.4199 66.5962 14.1998 56.9385 14.2061 47.0139V45.9861C14.1955 37.0351 16.8161 28.2783 21.7422 20.8047H56.7273C57.8599 20.8122 58.944 21.2649 59.7456 22.0651C60.5471 22.8653 61.0017 23.9487 61.0111 25.0812Z" fill="black"/>
<path opacity="0.2" d="M61.0111 25.0812V70.2583C61.0007 71.3902 60.5457 72.4727 59.7443 73.2721C58.9429 74.0715 57.8593 74.5237 56.7273 74.5312H23.3809C17.4199 66.5962 14.1998 56.9385 14.2061 47.0139V45.9861C14.1955 37.0351 16.8161 28.2783 21.7422 20.8047H56.7273C57.8599 20.8122 58.944 21.2649 59.7456 22.0651C60.5471 22.8653 61.0017 23.9487 61.0111 25.0812Z" fill="black"/>
<path opacity="0.2" d="M58.6716 25.0812V70.2583C58.6612 71.3902 58.2062 72.4727 57.4048 73.2721C56.6034 74.0715 55.5197 74.5237 54.3878 74.5312H23.3809C17.4199 66.5962 14.1998 56.9385 14.2061 47.0139V45.9861C14.1955 37.0351 16.8161 28.2783 21.7422 20.8047H54.3878C55.5204 20.8122 56.6045 21.2649 57.406 22.0651C58.2076 22.8653 58.6621 23.9487 58.6716 25.0812Z" fill="black"/>
<path d="M11.4784 20.8047H54.3806C55.5171 20.8037 56.6074 21.254 57.412 22.0566C58.2166 22.8592 58.6697 23.9484 58.6716 25.0848V67.9152C58.6697 69.0516 58.2166 70.1408 57.412 70.9434C56.6074 71.746 55.5171 72.1963 54.3806 72.1953H11.4784C10.9156 72.1963 10.3581 72.0863 9.83774 71.8716C9.31742 71.657 8.84449 71.3419 8.44599 70.9445C8.04749 70.547 7.73124 70.0748 7.5153 69.555C7.29936 69.0353 7.18797 68.478 7.1875 67.9152V25.0848C7.18797 24.522 7.29936 23.9648 7.5153 23.445C7.73124 22.9252 8.04749 22.4531 8.44599 22.0556C8.84449 21.6581 9.31742 21.343 9.83774 21.1284C10.3581 20.9137 10.9156 20.8037 11.4784 20.8047Z" fill="url(#paint0_linear_172_1613)"/>
<path d="M33.3968 32.2259C36.1897 32.038 38.9584 32.848 41.2097 34.5115C42.1353 35.3355 42.861 36.3595 43.3318 37.5059C43.8026 38.6523 44.0059 39.8909 43.9265 41.1276C43.9579 42.8697 43.493 44.5848 42.5861 46.0726C41.6685 47.5366 40.3467 48.7036 38.7803 49.4327C36.9906 50.2627 35.035 50.6732 33.0626 50.6331H27.6253V60.6956H22.0693V32.2259H33.3968ZM27.6217 46.2846H32.405C33.9216 46.394 35.4258 45.9454 36.6348 45.0232C37.1292 44.5517 37.5141 43.9774 37.7625 43.341C38.0108 42.7045 38.1166 42.0214 38.0723 41.3396C38.0723 38.2035 36.2455 36.6342 32.5918 36.6318H27.6217V46.2846Z" fill="white"/>
</g>
<defs>
<linearGradient id="paint0_linear_172_1613" x1="16.1503" y1="17.4409" x2="49.7088" y2="75.5591" gradientUnits="userSpaceOnUse">
<stop stop-color="#CA4C28"/>
<stop offset="0.5" stop-color="#C5401E"/>
<stop offset="1" stop-color="#B62F14"/>
</linearGradient>
<clipPath id="clip0_172_1613">
<rect width="115" height="93" fill="white"/>
</clipPath>
</defs>
</svg>
